<svg width="17" height="20" viewBox="0 0 17 20" fill="none" xmlns="http://www.w3.org/2000/svg">
<path d="M1.23958 6.46899C1.91945 6.46503 2.4741 7.01696 2.47918 7.70252V12.8723C2.48058 13.1995 2.35096 13.513 2.11792 13.7445C1.88401 13.9772 1.56887 14.108 1.24029 14.1087C0.559756 14.1123 0.00499899 13.5593 0.000708333 12.8731L0 7.70395C0.00187323 7.37433 0.133525 7.05896 0.365994 6.82723C0.598462 6.59549 0.912702 6.46637 1.23958 6.46825V6.46899ZM11.2356 1.82629V1.82772C12.9335 2.70269 14.0802 4.36263 14.0802 6.27185L2.91408 6.27257C2.91408 4.36334 4.06229 2.69983 5.76371 1.82629L4.89812 0.254197C4.87572 0.214624 4.87031 0.167543 4.88315 0.123854C4.89599 0.0801647 4.92596 0.0436547 4.96613 0.022776C5.0495 -0.0229641 5.15385 0.00764662 5.19987 0.0913451L6.07396 1.67701C6.83794 1.34077 7.66288 1.16832 8.49646 1.17059C9.33244 1.16786 10.1598 1.34056 10.926 1.67772L11.8001 0.0884881C11.8302 0.0348563 11.8862 0.00123532 11.9473 3.00647e-05C12.0084 -0.00111173 12.0655 0.0303366 12.0976 0.082774C12.1293 0.134907 12.1304 0.200309 12.1005 0.253483L11.2356 1.827V1.82629ZM5.95708 4.25763C6.20758 4.25035 6.40753 4.04463 6.40971 3.79193C6.40791 3.53897 6.20785 3.33282 5.95708 3.32552C5.70061 3.32473 5.49185 3.53332 5.49029 3.79193C5.49029 4.04835 5.69854 4.2562 5.95708 4.25763ZM11.0408 4.25764C11.2986 4.25764 11.5083 4.04835 11.5083 3.79122C11.4946 3.54094 11.2894 3.34505 11.0408 3.34505C10.7922 3.34505 10.587 3.54094 10.5733 3.79122C10.5739 3.91561 10.6234 4.03468 10.7111 4.12217C10.7988 4.20966 10.9174 4.25839 11.0408 4.25764ZM2.96225 14.7123V14.7116L2.95942 6.70112L14.0413 6.69898L14.0427 14.7101C14.038 15.4422 13.4463 16.0322 12.7203 16.0287H11.8171V18.7643C11.8124 19.4501 11.2577 20.0025 10.5775 19.9985C9.89712 20.0029 9.34193 19.4504 9.33725 18.7643V16.0301H7.66346V18.7643C7.66158 19.0939 7.52993 19.4093 7.29746 19.641C7.065 19.8727 6.75076 20.0019 6.42388 20C5.74401 20.0031 5.19 19.4506 5.18571 18.765L5.185 16.0294H4.284C3.93267 16.0294 3.5955 15.8901 3.34687 15.6437C3.09954 15.3981 2.96088 15.0623 2.96225 14.7123ZM15.7597 6.46682V6.46756C16.444 6.46756 16.9993 7.0204 16.9993 7.70252L17 12.8716C17 13.5545 16.4454 14.1066 15.7604 14.1066C15.431 14.1066 15.1151 13.9759 14.8821 13.7437C14.6505 13.514 14.5203 13.2 14.5208 12.8723V7.7018C14.5251 7.01569 15.08 6.46289 15.7604 6.46682H15.7597Z" fill="#B5EA45"/>
</svg>
