<svg width="16" height="18" viewBox="0 0 16 18" fill="none" xmlns="http://www.w3.org/2000/svg">
<path d="M15.9992 5.2869C15.9991 4.98454 15.9344 4.71735 15.8036 4.48804C15.6751 4.26254 15.4828 4.07355 15.2247 3.92412C13.0947 2.69592 10.9626 1.47149 8.83323 0.242044C8.25917 -0.0893724 7.70257 -0.0772902 7.13277 0.258884C6.28495 0.758887 2.04021 3.19079 0.775328 3.92343C0.254415 4.22498 0.000939033 4.68649 0.000813828 5.28634C0 7.75631 0.000813828 10.2262 0 12.6962C0 12.992 0.0620388 13.254 0.187055 13.4798C0.315578 13.7122 0.510646 13.9063 0.774639 14.0592C2.03958 14.7918 6.28488 17.2235 7.13252 17.7236C7.70257 18.06 8.25917 18.072 8.83342 17.7405C10.9628 16.511 13.0951 15.2866 15.2254 14.0584C15.4894 13.9057 15.6845 13.7113 15.813 13.4792C15.9378 13.2533 16 12.9914 16 12.6956C16 12.6956 16 7.75694 15.9992 5.2869Z" fill="#A179DC"/>
<path d="M8.02443 8.96729L0.187012 13.4799C0.315534 13.7122 0.510602 13.9064 0.774596 14.0592C2.03954 14.7919 6.28484 17.2236 7.13247 17.7237C7.70253 18.0601 8.25912 18.0721 8.83337 17.7405C10.9628 16.511 13.095 15.2867 15.2254 14.0585C15.4894 13.9057 15.6844 13.7114 15.813 13.4793L8.02443 8.96729Z" fill="#280068"/>
<path d="M15.9991 5.2869C15.999 4.98454 15.9343 4.71735 15.8035 4.48804L8.02441 8.96722L15.8129 13.4792C15.9378 13.2533 15.9998 12.9914 15.9999 12.6956C15.9999 12.6956 15.9999 7.75694 15.9991 5.2869Z" fill="#390091"/>
<path d="M12.6388 7.28027V8.12376H13.4822V7.28027H13.904V8.12376H14.7475V8.5455H13.904V9.38898H14.7475V9.81072H13.904V10.6542H13.4822V9.81072H12.6388V10.6542H12.217V9.81072H11.3735V9.38898H12.217V8.5455H11.3735V8.12376H12.217V7.28027H12.6388ZM13.4822 8.5455H12.6388V9.38898H13.4822V8.5455Z" fill="white"/>
<path d="M8.04173 3.04407C10.2418 3.04407 12.1626 4.23891 13.1915 6.01492L13.1815 5.99783L10.5929 7.48828C10.0829 6.62477 9.14799 6.04204 8.07551 6.03003L8.04173 6.02985C6.40621 6.02985 5.08026 7.35572 5.08026 8.99124C5.08026 9.52609 5.22285 10.0274 5.47083 10.4605C5.9813 11.3516 6.94092 11.9527 8.04173 11.9527C9.14933 11.9527 10.1144 11.344 10.6223 10.4433L10.6099 10.4649L13.1946 11.9623C12.177 13.7232 10.2825 14.9144 8.10797 14.9381L8.04173 14.9385C5.83471 14.9385 3.9084 13.7363 2.88215 11.9509C2.38114 11.0793 2.09448 10.0688 2.09448 8.99124C2.09448 5.70675 4.7571 3.04407 8.04173 3.04407Z" fill="white"/>
</svg>
