<svg width="14" height="18" viewBox="0 0 14 18" fill="none" xmlns="http://www.w3.org/2000/svg">
<path fill-rule="evenodd" clip-rule="evenodd" d="M2.88586 8.96881C2.87671 10.7079 4.15192 11.7446 6.18688 11.2733V6.66436C4.12619 6.0368 2.89448 7.30643 2.88586 8.96881ZM6.24913 0H9.05186V13.2663C6.36534 13.7055 3.79233 13.9841 1.95161 12.9549C-0.418475 11.6297 -0.609011 7.41874 1.26644 5.54322C2.21733 4.5924 4.13163 3.92301 6.18688 4.35983V0.186892C6.18151 0.0984516 6.17653 0.010408 6.24913 0Z" fill="white"/>
<path fill-rule="evenodd" clip-rule="evenodd" d="M13.5984 2.92731H10.7957V0H13.5984V2.92731Z" fill="white"/>
<path fill-rule="evenodd" clip-rule="evenodd" d="M13.5984 4.40955C13.5952 6.47341 13.5957 7.95646 13.5955 10.4638C13.4764 12.9278 13.5041 14.89 12.6019 16.069C12.424 16.3015 12.0461 16.6407 11.7299 16.8787C11.4644 17.0786 10.9583 17.4839 10.6711 17.5016C10.3815 17.5194 9.63753 17.0996 9.30081 16.941C8.85868 16.7327 8.44997 16.4562 7.99292 16.3182C9.05903 15.6576 10.071 15.1623 10.4842 13.8268C10.8435 12.6655 10.7957 10.9825 10.7957 9.34245C10.7957 7.72296 10.8029 5.84015 10.8029 4.41028L13.5984 4.40964V4.40955Z" fill="white"/>
</svg>
