<svg width="31" height="12" viewBox="0 0 31 12" fill="none" xmlns="http://www.w3.org/2000/svg">
<path d="M2.31011 3.46297C2.25049 3.46297 2.23558 3.43316 2.26539 3.38845L2.57839 2.98602C2.6082 2.94131 2.68272 2.9115 2.74234 2.9115H8.06329C8.1229 2.9115 8.13781 2.95621 8.108 3.00093L7.85462 3.38845C7.82481 3.43316 7.75029 3.47787 7.70558 3.47787L2.31011 3.46297Z" fill="#00ACD7"/>
<path d="M0.0596184 4.83419C0 4.83419 -0.0149046 4.80438 0.0149046 4.75966L0.327901 4.35724C0.357711 4.31252 0.432234 4.28271 0.491852 4.28271H7.28835C7.34797 4.28271 7.37778 4.32743 7.36288 4.37214L7.24364 4.72985C7.22874 4.78947 7.16912 4.81928 7.1095 4.81928L0.0596184 4.83419Z" fill="#00ACD7"/>
<path d="M3.66655 6.2054C3.60693 6.2054 3.59203 6.16069 3.62184 6.11597L3.8305 5.74336C3.86031 5.69864 3.91993 5.65393 3.97955 5.65393H6.96047C7.02009 5.65393 7.0499 5.69864 7.0499 5.75826L7.02009 6.11597C7.02009 6.17559 6.96047 6.22031 6.91576 6.22031L3.66655 6.2054Z" fill="#00ACD7"/>
<path d="M19.1375 3.1947C18.1985 3.43318 17.5576 3.61203 16.6336 3.85051C16.41 3.91012 16.3951 3.92503 16.2013 3.70146C15.9777 3.44808 15.8138 3.28413 15.5008 3.13508C14.5618 2.67304 13.6526 2.80718 12.8031 3.35865C11.7896 4.01446 11.2679 4.98326 11.2828 6.19053C11.2977 7.3829 12.1175 8.3666 13.2949 8.53055C14.3084 8.66469 15.158 8.30698 15.8287 7.54685C15.9628 7.3829 16.0821 7.20404 16.2311 6.99538C15.6946 6.99538 15.0239 6.99538 13.3545 6.99538C13.0415 6.99538 12.967 6.80162 13.0713 6.54824C13.2651 6.0862 13.6228 5.31116 13.8315 4.92364C13.8762 4.83421 13.9805 4.68516 14.2041 4.68516C14.9642 4.68516 17.7663 4.68516 19.6294 4.68516C19.5996 5.08759 19.5996 5.49001 19.54 5.89244C19.376 6.96557 18.9736 7.94927 18.3178 8.81374C17.2446 10.2297 15.8436 11.109 14.07 11.3475C12.6093 11.5413 11.253 11.2581 10.0606 10.3638C8.95768 9.52916 8.33168 8.42622 8.16773 7.055C7.97397 5.43039 8.45092 3.96974 9.43462 2.68795C10.4929 1.30182 11.8939 0.422445 13.6079 0.109449C15.0089 -0.14393 16.3504 0.0200208 17.5576 0.839774C18.3476 1.36144 18.914 2.07686 19.2866 2.94132C19.376 3.07547 19.3164 3.14999 19.1375 3.1947Z" fill="#00ACD7"/>
<path d="M24.071 11.437C22.7147 11.4072 21.4776 11.0197 20.4343 10.1254C19.5549 9.36526 19.0034 8.39646 18.8246 7.2488C18.5563 5.56458 19.0183 4.07412 20.0318 2.74761C21.1199 1.31677 22.4315 0.571539 24.2051 0.258542C25.7254 -0.00974105 27.1562 0.139305 28.453 1.01868C29.6304 1.82353 30.3607 2.91156 30.5545 4.34241C30.8079 6.35453 30.2266 7.99403 28.8405 9.39507C27.8568 10.3937 26.6495 11.0197 25.2634 11.3029C24.8609 11.3774 24.4585 11.3923 24.071 11.437ZM27.6183 5.41554C27.6034 5.22178 27.6034 5.07273 27.5736 4.92368C27.3053 3.44813 25.949 2.61347 24.533 2.94137C23.1469 3.25437 22.2526 4.13374 21.9247 5.53477C21.6565 6.69733 22.2228 7.8748 23.296 8.35175C24.1157 8.70946 24.9355 8.66474 25.7254 8.26232C26.9029 7.65123 27.5438 6.69733 27.6183 5.41554Z" fill="#00ACD7"/>
</svg>
