<svg width="14" height="16" viewBox="0 0 14 16" fill="none" xmlns="http://www.w3.org/2000/svg">
<path d="M10.3042 0H10.4262C10.5248 1.1281 10.0621 1.971 9.50029 2.58191C8.94891 3.1882 8.19424 3.77597 6.97382 3.68688C6.89188 2.57497 7.35516 1.79398 7.91639 1.1848C8.43635 0.617276 9.39001 0.112232 10.3042 0ZM14 11.7444V11.7757C13.6569 12.7441 13.1671 13.5737 12.5701 14.3443C12.0249 15.0431 11.3565 15.9838 10.1638 15.9838C9.13311 15.9838 8.44867 15.3659 7.39151 15.3492C6.27459 15.3324 5.66037 15.8658 4.63833 16H4.29025C3.53989 15.8988 2.9343 15.3451 2.4932 14.8464C1.19208 13.3724 0.187283 11.4679 0 9.03178V8.31558C0.0794719 6.57193 0.988779 5.15399 2.19749 4.46672C2.83512 4.1011 3.71239 3.78985 4.68884 3.9287C5.10777 3.99002 5.5347 4.12308 5.90988 4.25556C6.26473 4.38283 6.70891 4.60845 7.12968 4.5963C7.41492 4.58821 7.69831 4.44994 7.98601 4.35217C8.82693 4.0687 9.65184 3.74473 10.7398 3.89688C12.0459 4.08143 12.9736 4.62176 13.5466 5.45714C12.4414 6.11201 11.5672 7.10012 11.7169 8.78707C11.8493 10.3196 12.8055 11.2157 14 11.7444Z" fill="white"/>
</svg>
