<svg width="12" height="17" viewBox="0 0 12 17" fill="none" xmlns="http://www.w3.org/2000/svg">
<path fill-rule="evenodd" clip-rule="evenodd" d="M3.85391 13.3223C3.85391 13.3223 3.2342 13.683 4.29544 13.8047C5.5813 13.9515 6.23837 13.9303 7.65495 13.6626C7.65495 13.6626 8.02814 13.896 8.54842 14.0982C5.37178 15.4592 1.35903 14.0194 3.85391 13.3223Z" fill="#0074BD"/>
<path fill-rule="evenodd" clip-rule="evenodd" d="M3.46571 11.5459C3.46571 11.5459 2.77056 12.0606 3.83258 12.1703C5.20628 12.3122 6.2907 12.3238 8.16827 11.9624C8.16827 11.9624 8.42735 12.2256 8.83536 12.3694C4.99522 13.4927 0.718077 12.4578 3.46571 11.5459Z" fill="#0074BD"/>
<path fill-rule="evenodd" clip-rule="evenodd" d="M6.73776 8.53229C7.52089 9.43376 6.53241 10.2443 6.53241 10.2443C6.53241 10.2443 8.51975 9.21858 7.60726 7.93347C6.75471 6.73558 6.10108 6.14054 9.63967 4.08838C9.63971 4.08838 4.08496 5.47535 6.73776 8.53229Z" fill="#EA2D2E"/>
<path fill-rule="evenodd" clip-rule="evenodd" d="M10.939 14.6364C10.939 14.6364 11.3978 15.0146 10.4338 15.3071C8.60063 15.8623 2.80259 16.0298 1.19218 15.3293C0.613681 15.0773 1.69904 14.7281 2.04053 14.6543C2.3966 14.5773 2.5999 14.5913 2.5999 14.5913C1.95607 14.138 -1.56145 15.4818 0.813395 15.8671C7.28968 16.9169 12.6187 15.3943 10.939 14.6364Z" fill="#0074BD"/>
<path fill-rule="evenodd" clip-rule="evenodd" d="M4.15218 9.70517C4.15218 9.70517 1.20332 10.4058 3.10795 10.6604C3.91241 10.7681 5.5151 10.7433 7.00908 10.618C8.22968 10.5155 9.45463 10.2964 9.45463 10.2964C9.45463 10.2964 9.02455 10.4809 8.71317 10.6934C5.71805 11.4812 -0.0668899 11.1143 1.59876 10.3089C3.00677 9.62775 4.15218 9.70517 4.15218 9.70517Z" fill="#0074BD"/>
<path fill-rule="evenodd" clip-rule="evenodd" d="M9.44243 12.6621C12.4869 11.0805 11.0791 9.56042 10.0965 9.76516C9.85625 9.81531 9.74846 9.85874 9.74846 9.85874C9.74846 9.85874 9.83798 9.7185 10.0084 9.65816C11.9523 8.9751 13.4469 11.6735 9.38159 12.7421C9.38156 12.7421 9.42833 12.6998 9.44243 12.6621Z" fill="#0074BD"/>
<path fill-rule="evenodd" clip-rule="evenodd" d="M7.60738 0.774048C7.60738 0.774048 9.29306 2.4607 6.00806 5.05356C3.37371 7.13429 5.40741 8.32022 6.00713 9.6759C4.46926 8.28849 3.34126 7.06699 4.09786 5.9303C5.20892 4.26199 8.28735 3.45288 7.60738 0.774048Z" fill="#EA2D2E"/>
<path fill-rule="evenodd" clip-rule="evenodd" d="M4.45134 16.9491C7.37299 17.1359 11.8608 16.8451 11.967 15.4625C11.967 15.4625 11.7628 15.9866 9.55217 16.4025C7.05823 16.872 3.98156 16.8174 2.15747 16.5162C2.15747 16.5162 2.53116 16.8255 4.45134 16.9491Z" fill="#0074BD"/>
</svg>
