<svg width="18" height="19" viewBox="0 0 18 19" fill="none" xmlns="http://www.w3.org/2000/svg">
<path fill-rule="evenodd" clip-rule="evenodd" d="M17.9898 4.2983C17.9965 4.32363 17.9999 4.34974 18 4.37598V8.45428C18 8.50663 17.9865 8.55804 17.9609 8.60334C17.9354 8.64863 17.8986 8.6862 17.8543 8.71224L14.5159 10.683V14.5892C14.5159 14.6955 14.4608 14.7936 14.3709 14.8472L7.40242 18.9604C7.38647 18.9697 7.36907 18.9756 7.35167 18.982C7.34515 18.9842 7.33899 18.9883 7.3321 18.9901C7.28339 19.0033 7.23218 19.0033 7.18347 18.9901C7.17549 18.9879 7.16824 18.9834 7.16063 18.9805C7.14468 18.9745 7.12801 18.9693 7.11278 18.9604L0.145728 14.8472C0.101469 14.8211 0.0646935 14.7835 0.0391091 14.7382C0.0135246 14.6929 3.50689e-05 14.6415 0 14.5892L0 2.3543C0 2.32754 0.00362509 2.30152 0.0101502 2.27625C0.0123253 2.2677 0.0174004 2.25989 0.0203005 2.25134C0.0257381 2.23573 0.0308132 2.21975 0.0387884 2.20525C0.044226 2.19559 0.0522012 2.18778 0.0587264 2.17886C0.0670641 2.16697 0.0746768 2.1547 0.0844645 2.14429C0.0928022 2.13574 0.103677 2.12942 0.113103 2.12199C0.123615 2.11307 0.133041 2.10341 0.145003 2.09634H0.145366L3.62907 0.0397241C3.67318 0.0136978 3.72318 0 3.77408 0C3.82497 0 3.87497 0.0136978 3.91908 0.0397241L7.40279 2.09634H7.40351C7.41511 2.10378 7.4249 2.11307 7.43541 2.12162C7.44484 2.12905 7.45535 2.13574 7.46369 2.14392C7.47384 2.1547 7.48109 2.16697 7.48979 2.17886C7.49595 2.18778 7.50429 2.19559 7.50937 2.20525C7.5177 2.22012 7.52242 2.23573 7.52822 2.25134C7.53112 2.25989 7.53619 2.2677 7.53837 2.27662C7.54504 2.30195 7.54845 2.32807 7.54852 2.3543V9.9961L10.4515 8.28218V4.37561C10.4515 4.34959 10.4551 4.3232 10.4616 4.2983C10.4642 4.28938 10.4689 4.28157 10.4718 4.27302C10.4776 4.25741 10.4827 4.24143 10.4906 4.22693C10.4961 4.21727 10.504 4.20946 10.5102 4.20054C10.5189 4.18865 10.5262 4.17638 10.5363 4.16597C10.5446 4.15742 10.5552 4.1511 10.5646 4.14367C10.5755 4.13475 10.5849 4.12509 10.5965 4.11802H10.5969L14.0809 2.0614C14.125 2.03534 14.175 2.02162 14.2259 2.02162C14.2768 2.02162 14.3268 2.03534 14.3709 2.0614L17.8546 4.11802C17.867 4.12546 17.8764 4.13475 17.8873 4.1433C17.8963 4.15073 17.9068 4.15742 17.9152 4.1656C17.9253 4.17638 17.9326 4.18865 17.9413 4.20054C17.9478 4.20946 17.9558 4.21727 17.9608 4.22693C17.9692 4.24143 17.9739 4.25741 17.9797 4.27302C17.983 4.28157 17.9877 4.28938 17.9898 4.2983ZM17.4193 8.28218V4.89079L16.2001 5.6104L14.5159 6.6047V9.9961L17.4196 8.28218H17.4193ZM13.9356 14.4171V11.0235L12.2789 11.9936L7.54815 14.762V18.1876L13.9356 14.4171ZM0.580739 2.86911V14.4171L6.96741 18.1873V14.7624L3.63089 12.8262L3.6298 12.8255L3.62835 12.8247C3.61711 12.818 3.60769 12.8084 3.59717 12.8002C3.58811 12.7928 3.5776 12.7868 3.56962 12.7786L3.5689 12.7775C3.55947 12.7682 3.55295 12.7567 3.54497 12.7463C3.53772 12.7363 3.52902 12.7277 3.52322 12.7173L3.52286 12.7162C3.51633 12.705 3.51235 12.6917 3.50763 12.679C3.50292 12.6679 3.49676 12.6575 3.49386 12.6456V12.6452C3.49023 12.6311 3.48951 12.6162 3.48806 12.6017C3.48661 12.5906 3.48371 12.5794 3.48371 12.5683V12.5675V4.58302L1.79986 3.58835L0.580739 2.86948V2.86911ZM3.77444 0.641136L0.871833 2.3543L3.77371 4.06747L6.67596 2.35393L3.77371 0.641136H3.77444ZM5.28393 11.3327L6.96778 10.3388V2.86911L5.74866 3.58872L4.06445 4.58302V12.0527L5.28393 11.3327ZM14.2259 2.66282L11.3237 4.37598L14.2259 6.08915L17.1278 4.37561L14.2259 2.66282ZM13.9356 6.6047L12.2513 5.6104L11.0322 4.89079V8.28218L12.7161 9.27611L13.9356 9.9961V6.6047ZM7.25742 14.2472L11.5144 11.7554L13.6423 10.5102L10.7422 8.7981L7.40315 10.7692L4.35989 12.5657L7.25742 14.2472Z" fill="#FF2D20"/>
</svg>
