<svg width="22" height="12" viewBox="0 0 22 12" fill="none" xmlns="http://www.w3.org/2000/svg">
<path d="M10.725 11.3391C16.6482 11.3391 21.4501 8.90567 21.4501 5.90389C21.4501 2.90215 16.6482 0.468675 10.725 0.468675C4.80184 0.468675 0 2.90215 0 5.90389C0 8.90567 4.80184 11.3391 10.725 11.3391Z" fill="#777BB3"/>
<path d="M5.62775 6.57767C6.11479 6.57767 6.47839 6.48786 6.70845 6.3108C6.93604 6.13556 7.09324 5.83195 7.17563 5.40845C7.25245 5.0126 7.22318 4.7362 7.08868 4.58704C6.95114 4.43469 6.65379 4.35742 6.20489 4.35742H5.42656L4.99506 6.57767H5.62775ZM3.08201 9.31262C3.04588 9.31262 3.01157 9.29647 2.9886 9.26854C2.96559 9.24065 2.95626 9.20391 2.96316 9.16843L4.10672 3.28472C4.11778 3.22784 4.16763 3.18674 4.2256 3.18674H6.69024C7.46483 3.18674 8.04137 3.39706 8.40375 3.81193C8.76808 4.22897 8.88058 4.81193 8.73812 5.54457C8.68015 5.84305 8.58044 6.12026 8.44178 6.36845C8.30295 6.61691 8.11948 6.84681 7.89636 7.05188C7.62929 7.30184 7.32701 7.48309 6.99874 7.58975C6.67567 7.69499 6.26076 7.74835 5.76557 7.74835H4.76758L4.48258 9.21461C4.47152 9.27153 4.42171 9.31262 4.36374 9.31262H3.08201Z" fill="black"/>
<path d="M11.677 7.74841C11.6408 7.74841 11.6065 7.73227 11.5836 7.70433C11.5605 7.67644 11.5512 7.63974 11.5581 7.60422L12.0639 5.00091C12.1121 4.75333 12.1002 4.57563 12.0306 4.50055C11.9879 4.45465 11.8599 4.37767 11.4813 4.37767H10.5648L9.92883 7.6504C9.91777 7.70732 9.86792 7.74841 9.80995 7.74841H8.53835C8.50218 7.74841 8.46791 7.73227 8.4449 7.70433C8.42189 7.67644 8.41256 7.6397 8.41946 7.60422L9.56301 1.72051C9.57408 1.66363 9.62393 1.62253 9.6819 1.62253H10.9535C10.9897 1.62253 11.0239 1.63868 11.047 1.66658C11.07 1.69451 11.0793 1.73121 11.0724 1.76673L10.7964 3.1868H11.7823C12.5333 3.1868 13.0426 3.31921 13.3393 3.59162C13.6416 3.86951 13.736 4.31384 13.6197 4.91242L13.0876 7.6504C13.0766 7.70732 13.0268 7.74841 12.9688 7.74841H11.677Z" fill="black"/>
<path d="M15.6319 6.57767C16.1189 6.57767 16.4825 6.48786 16.7126 6.3108C16.9402 6.1356 17.0974 5.83199 17.1798 5.40845C17.2566 5.0126 17.2274 4.7362 17.0928 4.58704C16.9553 4.43469 16.6579 4.35742 16.209 4.35742H15.4307L14.9992 6.57767H15.6319ZM13.0862 9.31262C13.0501 9.31262 13.0158 9.29647 12.9928 9.26854C12.9698 9.24065 12.9604 9.20391 12.9673 9.16843L14.1109 3.28472C14.122 3.22784 14.1718 3.18674 14.2298 3.18674H16.6944C17.469 3.18674 18.0455 3.39706 18.4079 3.81193C18.7723 4.22893 18.8847 4.81189 18.7423 5.54457C18.6843 5.84305 18.5846 6.12026 18.4459 6.36845C18.3071 6.61691 18.1236 6.84681 17.9005 7.05188C17.6334 7.30184 17.3312 7.48309 17.0029 7.58975C16.6798 7.69499 16.2649 7.74835 15.7697 7.74835H14.7717L14.4868 9.21461C14.4757 9.27153 14.4259 9.31262 14.3679 9.31262H13.0862Z" fill="black"/>
</svg>
