<svg width="17" height="17" viewBox="0 0 17 17" fill="none" xmlns="http://www.w3.org/2000/svg">
<path d="M8.14906 0.000136405C7.46892 0.00329673 6.8194 0.0613028 6.24789 0.162431C4.5643 0.459867 4.25862 1.08243 4.25862 2.23053V3.74683H8.23716V4.25226H4.25862H2.76551C1.60923 4.25226 0.596766 4.94725 0.28008 6.26935C-0.0852145 7.78479 -0.101417 8.73045 0.28008 10.3128C0.562889 11.4907 1.23827 12.3299 2.39455 12.3299H3.76246V10.5122C3.76246 9.19902 4.89866 8.04068 6.24789 8.04068H10.2218C11.328 8.04068 12.2111 7.12988 12.2111 6.01895V2.23053C12.2111 1.15232 11.3015 0.34238 10.2218 0.162431C9.53834 0.0486616 8.8292 -0.00302392 8.14906 0.000136405ZM5.99749 1.21967C6.40845 1.21967 6.74405 1.56075 6.74405 1.98013C6.74405 2.39803 6.40845 2.73596 5.99749 2.73596C5.58506 2.73596 5.25094 2.39803 5.25094 1.98013C5.25094 1.56075 5.58506 1.21967 5.99749 1.21967Z" fill="url(#paint0_linear)"/>
<path d="M12.7074 4.2522V6.01889C12.7074 7.38859 11.5462 8.54142 10.222 8.54142H6.24806C5.15954 8.54142 4.25879 9.47304 4.25879 10.5631V14.3516C4.25879 15.4298 5.19637 16.064 6.24806 16.3733C7.50744 16.7436 8.71512 16.8105 10.222 16.3733C11.2236 16.0833 12.2112 15.4997 12.2112 14.3516V12.8353H8.23733V12.3298H12.2112H14.2005C15.3568 12.3298 15.7877 11.5233 16.1898 10.3127C16.6051 9.06649 16.5875 7.86801 16.1898 6.26929C15.904 5.11821 15.3582 4.2522 14.2005 4.2522H12.7074ZM10.4724 13.8461C10.8848 13.8461 11.2189 14.1841 11.2189 14.602C11.2189 15.0214 10.8848 15.3624 10.4724 15.3624C10.0614 15.3624 9.7258 15.0214 9.7258 14.602C9.7258 14.1841 10.0614 13.8461 10.4724 13.8461Z" fill="url(#paint1_linear)"/>
<defs>
<linearGradient id="paint0_linear" x1="1.29854e-08" y1="1.12801e-08" x2="9.17408" y2="7.81759" gradientUnits="userSpaceOnUse">
<stop stop-color="#5A9FD4"/>
<stop offset="1" stop-color="#306998"/>
</linearGradient>
<linearGradient id="paint1_linear" x1="10.3768" y1="14.4745" x2="7.08544" y2="9.86238" gradientUnits="userSpaceOnUse">
<stop stop-color="#FFD43B"/>
<stop offset="1" stop-color="#FFE873"/>
</linearGradient>
</defs>
</svg>
