<svg width="20" height="12" viewBox="0 0 20 12" fill="none" xmlns="http://www.w3.org/2000/svg">
<path fill-rule="evenodd" clip-rule="evenodd" d="M0.603516 12.0001H7.41389C7.41389 12.0001 6.11216 6.06039 10.4225 3.65521C11.3622 3.19831 14.3536 1.49141 19.2501 5.11211C19.4053 4.9828 19.5519 4.87935 19.5519 4.87935C19.5519 4.87935 15.0691 0.405199 10.0777 0.905201C7.56906 1.12934 4.48284 3.41383 2.67249 6.43108C0.862137 9.44834 0.603516 12.0001 0.603516 12.0001Z" fill="#CC0000"/>
<path fill-rule="evenodd" clip-rule="evenodd" d="M0.603516 12.0001H7.41389C7.41389 12.0001 6.11216 6.06039 10.4225 3.65521C11.3622 3.19831 14.3536 1.49141 19.2501 5.11211C19.4053 4.9828 19.5519 4.87935 19.5519 4.87935C19.5519 4.87935 15.0691 0.405199 10.0777 0.905201C7.56906 1.12934 4.48284 3.41383 2.67249 6.43108C0.862137 9.44834 0.603516 12.0001 0.603516 12.0001Z" fill="#CC0000"/>
<path fill-rule="evenodd" clip-rule="evenodd" d="M0.603516 12.0001H7.41389C7.41389 12.0001 6.11216 6.06041 10.4225 3.65523C11.3622 3.19833 14.3536 1.49143 19.2501 5.11213C19.4053 4.98282 19.5519 4.87937 19.5519 4.87937C19.5519 4.87937 15.0691 0.405218 10.0777 0.90522C7.56044 1.12936 4.47422 3.41385 2.66387 6.4311C0.853517 9.44836 0.603516 12.0001 0.603516 12.0001ZM14.7932 1.38798L14.8277 0.810392C14.7501 0.767289 14.5346 0.66384 13.9915 0.508667L13.957 1.07763C14.2415 1.17246 14.5174 1.27591 14.7932 1.38798Z" fill="#CC0000"/>
<path fill-rule="evenodd" clip-rule="evenodd" d="M13.9742 3.21553L13.9397 3.75863C14.2242 3.76726 14.5087 3.80174 14.7932 3.86208L14.8276 3.3276C14.5345 3.26725 14.2501 3.23277 13.9742 3.21553ZM10.7845 0.525864H10.8707L10.6983 0C10.4311 0 10.1552 0.0172414 9.87073 0.0517243L10.0345 0.560347C10.2845 0.534485 10.5345 0.525864 10.7845 0.525864ZM11.1983 3.69829L11.3966 4.29312C11.6466 4.17243 11.8966 4.06898 12.1466 3.99139L11.9569 3.42243C11.6638 3.50863 11.4138 3.60346 11.1983 3.69829ZM7.28451 1.43104L6.89658 0.83621C6.68106 0.94828 6.45692 1.06897 6.22416 1.2069L6.62072 1.81035C6.84485 1.67242 7.06037 1.54311 7.28451 1.43104ZM9.05176 5.31037L9.46555 5.93106C9.61211 5.71554 9.78452 5.51726 9.97418 5.31899L9.58624 4.73278C9.38797 4.91381 9.20693 5.11209 9.05176 5.31037ZM7.80175 8.08624L8.50003 8.63796C8.53452 8.30176 8.59486 7.96555 8.68107 7.62934L8.06038 7.13796C7.94831 7.45692 7.87072 7.77589 7.80175 8.08624ZM4.02588 3.99139L3.41381 3.45691C3.18967 3.67243 2.97415 3.88795 2.77587 4.10346L3.43967 4.67243C3.6207 4.43967 3.81898 4.20691 4.02588 3.99139ZM1.42242 7.84486L0.431036 7.48279C0.267242 7.85348 0.0862072 8.28451 0 8.51727L0.991383 8.87934C1.10345 8.58624 1.28449 8.16382 1.42242 7.84486ZM7.67244 10.2759C7.68968 10.7328 7.73279 11.1035 7.77589 11.3621L8.81038 11.7328C8.73279 11.3966 8.65521 11.0173 8.60348 10.6121L7.67244 10.2759Z" fill="#CC0000"/>
</svg>
