<svg width="22" height="20" viewBox="0 0 22 20" fill="none" xmlns="http://www.w3.org/2000/svg">
<path fill-rule="evenodd" clip-rule="evenodd" d="M17.6395 6.20761C17.5438 6.17891 17.4481 6.14612 17.3507 6.11273C17.2199 6.06791 17.086 6.02201 16.9447 5.98347C16.9671 5.90503 16.9839 5.82658 17.0007 5.74814C17.0175 5.66969 17.0343 5.59124 17.0567 5.51279C17.5722 2.98005 17.236 0.918003 16.0705 0.245596C14.9498 -0.404397 13.1119 0.268007 11.274 1.88178C11.0947 2.03868 10.9154 2.19558 10.7361 2.37489L10.7361 2.37487C10.624 2.26281 10.512 2.15074 10.3775 2.03868C8.44991 0.312837 6.49993 -0.404396 5.33443 0.268011C4.21375 0.918005 3.87755 2.84557 4.34823 5.24382C4.39306 5.49037 4.43788 5.71451 4.50513 5.96106C4.23616 6.0283 3.9672 6.11795 3.72065 6.20761C1.45688 6.99208 0 8.24724 0 9.52481C0 10.8472 1.56895 12.192 3.92237 12.9989C3.96327 13.0125 4.00325 13.0262 4.04268 13.0396L4.04271 13.0396C4.19775 13.0925 4.34431 13.1425 4.50513 13.1782C4.4715 13.3015 4.44349 13.4304 4.41547 13.5593C4.38745 13.6881 4.35944 13.817 4.32582 13.9403C3.87755 16.3161 4.23616 18.1765 5.33443 18.8264C6.47752 19.4989 8.4275 18.804 10.3102 17.1678C10.3887 17.1006 10.4615 17.0334 10.5344 16.9661C10.6072 16.8989 10.6801 16.8316 10.7585 16.7644C10.9378 16.9437 11.1395 17.123 11.3413 17.3023C13.1568 18.8713 14.9723 19.4989 16.0929 18.8713C17.236 18.1989 17.6171 16.1816 17.124 13.7386C17.0791 13.5593 17.0343 13.3576 16.9895 13.1558L16.9895 13.1558L17.3929 13.0213C19.8584 12.2144 21.4498 10.892 21.4498 9.54723C21.4498 8.26965 19.9481 7.0145 17.6395 6.20761ZM17.1017 12.1695C17.0457 12.192 16.984 12.2088 16.9224 12.2256C16.8608 12.2424 16.7991 12.2592 16.7431 12.2816C16.4517 11.3402 16.0707 10.4437 15.6672 9.56957C16.0707 8.69544 16.4293 7.7989 16.7207 6.87994C16.9448 6.94719 17.1465 7.01442 17.3483 7.08167C19.3431 7.75407 20.5534 8.7851 20.5534 9.54716C20.531 10.3765 19.231 11.4523 17.1017 12.1695ZM16.2276 13.9178C16.4293 14.8592 16.4741 15.8005 16.3397 16.7419C16.2052 17.4367 15.9586 17.885 15.6448 18.0643C14.9724 18.4453 13.5155 17.9522 11.969 16.6074C11.7897 16.4505 11.6104 16.2936 11.4311 16.1143C12.0811 15.3971 12.6862 14.635 13.2242 13.8282C14.2104 13.7385 15.1742 13.604 16.1379 13.3799C16.1379 13.5631 16.1749 13.7093 16.2153 13.869L16.2276 13.9178ZM7.30699 18.0195C6.65699 18.2436 6.11907 18.266 5.80528 18.0867C5.13287 17.7057 4.8415 16.1816 5.22253 14.1644C5.26735 13.9178 5.31218 13.6937 5.37942 13.4471C6.3432 13.6488 7.30699 13.7833 8.27077 13.873C8.83111 14.6799 9.45869 15.4419 10.1087 16.1592C10.0414 16.2264 9.9742 16.288 9.90696 16.3497L9.90693 16.3497C9.8397 16.4113 9.77247 16.473 9.70524 16.5402C9.01042 17.1454 8.18112 17.6609 7.30699 18.0195ZM4.21392 12.1695C3.29496 11.8782 2.46566 11.4299 1.70359 10.8471C1.16567 10.3989 0.896708 9.92819 0.896708 9.56957C0.896708 8.7851 2.06221 7.7989 4.01219 7.10408C4.25874 7.01443 4.50528 6.94719 4.75182 6.87995L4.75183 6.87995L4.75184 6.87994C5.04322 7.7989 5.37942 8.71786 5.80528 9.59199C5.40183 10.4885 5.04322 11.4075 4.75184 12.3489C4.68199 12.3256 4.61482 12.3023 4.55034 12.2799L4.55014 12.2799C4.4285 12.2377 4.31642 12.1988 4.21392 12.1695ZM5.24494 5.08686C4.8415 3.02481 5.11046 1.47828 5.78287 1.07483C6.5001 0.648975 8.09146 1.25414 9.77248 2.73344C9.88455 2.82309 9.99662 2.93515 10.0863 3.02481C9.43628 3.74204 8.8087 4.50411 8.24836 5.28858C7.28457 5.37823 6.32079 5.51272 5.37942 5.73685C5.33459 5.53513 5.28977 5.311 5.24494 5.08686ZM14.5017 7.37304C14.3 7.01447 14.0759 6.6559 13.8518 6.29732L13.8518 6.29719C14.5466 6.38685 15.1966 6.49891 15.8017 6.63339C15.6 7.26097 15.3759 7.88856 15.1069 8.47131C14.9276 8.11269 14.7259 7.75407 14.5017 7.37304ZM10.7363 3.69722C11.1845 4.19031 11.6104 4.68342 11.9914 5.22134C11.1397 5.17652 10.3104 5.17652 9.45869 5.22134C9.86214 4.70583 10.288 4.19031 10.7363 3.69722ZM6.92596 7.39545C6.72424 7.75406 6.52253 8.13507 6.32082 8.51609L6.32079 8.51613C6.07424 7.91097 5.82769 7.28339 5.64838 6.65581C6.29838 6.52133 6.94837 6.40926 7.59836 6.31961C7.34833 6.66137 7.1236 7.02094 6.92596 7.39545ZM7.59836 12.8644C6.92596 12.7971 6.27596 12.6851 5.62597 12.5506C5.82769 11.9006 6.05183 11.273 6.32079 10.6454C6.42164 10.8359 6.52248 11.0208 6.62333 11.2057L6.62337 11.2058C6.72424 11.3907 6.8251 11.5756 6.92596 11.7661C7.15008 12.1471 7.37421 12.5057 7.59834 12.8643L7.59836 12.8644ZM10.7587 15.4643C10.3104 14.9712 9.86214 14.4557 9.45869 13.9178C9.86214 13.9402 10.288 13.9402 10.7139 13.9402C11.1621 13.9402 11.588 13.9402 12.0138 13.9178C11.6104 14.4557 11.2069 14.9712 10.7587 15.4643ZM15.1293 10.623C15.3983 11.2506 15.6448 11.8782 15.8466 12.5058C15.1742 12.6626 14.5242 12.7747 13.8518 12.842C14.0759 12.4833 14.3 12.1247 14.5017 11.7437C14.7259 11.3851 14.9276 11.0041 15.1293 10.623L15.1293 10.623L15.1293 10.623ZM13.7173 11.2954L13.7172 11.2955C13.381 11.8558 13.0448 12.4161 12.6862 12.954C12.0587 12.9989 11.3863 13.0213 10.7139 13.0213C10.0414 13.0213 9.39145 12.9989 8.76387 12.954C8.38288 12.4162 8.04671 11.8559 7.71054 11.2956L7.71051 11.2955L7.71043 11.2954C7.37423 10.7351 7.08285 10.1523 6.79148 9.56957L6.79149 9.56954C7.08286 8.9868 7.37423 8.40406 7.71043 7.84373C8.04664 7.28339 8.38284 6.72305 8.74146 6.18512C10.0414 6.09547 11.3414 6.09547 12.6638 6.18512C13.0224 6.72305 13.3811 7.28339 13.6949 7.84373C14.0311 8.40406 14.3224 8.9868 14.6138 9.56954L14.6138 9.56957C14.3448 10.1523 14.0311 10.7351 13.7173 11.2954ZM15.6 1.05242C16.3172 1.47828 16.6086 3.13688 16.1379 5.33341C16.1267 5.40065 16.1099 5.47349 16.0931 5.54634C16.0763 5.61918 16.0595 5.69203 16.0483 5.75927C15.1069 5.53513 14.1431 5.40065 13.1793 5.311C12.619 4.52652 12.0138 3.76446 11.3638 3.04722C11.5207 2.89033 11.7 2.73343 11.8569 2.59895C13.4483 1.20931 14.9276 0.671387 15.6 1.05242ZM12.6415 9.59209C12.6415 8.51624 11.7674 7.66453 10.7139 7.66453C9.66051 7.66453 8.80879 8.51624 8.78638 9.59209C8.78638 10.6679 9.66051 11.5197 10.7139 11.5197C11.7898 11.5197 12.6415 10.6455 12.6415 9.59209Z" fill="#2CC8F7"/>
</svg>
