<svg width="11" height="17" viewBox="0 0 11 17" fill="none" xmlns="http://www.w3.org/2000/svg">
<path fill-rule="evenodd" clip-rule="evenodd" d="M0.0158691 6.32577C0.164155 6.53016 1.41457 6.9157 3.27977 7.31728C5.14497 7.67477 7.08471 9.08629 8.59322 8.65105C9.61359 8.35608 10.7205 5.72781 10.7205 5.33746V5.29738C10.7205 5.02486 10.5161 4.80603 10.1691 4.62408C8.74631 3.89708 8.47699 3.62936 7.94958 3.77444C5.21149 4.5303 0.377367 4.14396 0.0158691 6.32577Z" fill="#380D09"/>
<path fill-rule="evenodd" clip-rule="evenodd" d="M0.0158691 11.6625C0.164155 11.8701 1.41457 12.2525 3.27977 12.6548C5.36379 13.0348 7.17608 14.2732 8.6854 13.8371C9.70577 13.5421 10.7205 11.0654 10.7205 10.6742V10.6357C10.7205 10.364 10.5161 10.1444 10.1691 9.96324C9.08377 9.38613 7.6498 8.7505 7.12318 8.89558C4.38029 9.64984 0.714016 9.81576 0.0158691 11.6625Z" fill="#380D09"/>
<path fill-rule="evenodd" clip-rule="evenodd" d="M0.000620005 7.4729V7.5114C-0.000206668 7.49858 -0.000206668 7.48572 0.000620005 7.4729Z" fill="#555555"/>
<path fill-rule="evenodd" clip-rule="evenodd" d="M8.68145 1.03159C6.15978 1.7602 2.15927 2.17139 0.00390625 2.17139V6.28733C0.00459167 6.30149 0.00994713 6.31502 0.0191357 6.32581C1.48997 6.32581 6.03074 5.84488 8.77042 5.09142C9.24823 4.96981 9.71673 4.81418 10.1723 4.62573C10.5074 4.47503 10.7238 4.31633 10.7238 4.15121V0C10.7206 0.391155 9.70182 0.737423 8.68145 1.03159Z" fill="#DE3423"/>
<path fill-rule="evenodd" clip-rule="evenodd" d="M8.68145 6.36912C7.17214 6.80436 5.13541 7.12818 3.27983 7.31734C2.03422 7.44479 0.870378 7.51132 0.00390625 7.51132V11.6241C0.00459167 11.6382 0.00994713 11.6517 0.0191357 11.6625C1.48997 11.6625 6.03074 11.1816 8.77042 10.4289C9.24812 10.307 9.71659 10.1514 10.1723 9.96325C10.5074 9.81176 10.7238 9.65385 10.7238 9.48873V5.33752C10.7206 5.72788 9.70182 6.07415 8.68145 6.36912Z" fill="#DE3423"/>
<path fill-rule="evenodd" clip-rule="evenodd" d="M8.68124 11.7098C7.17193 12.145 5.1352 12.4681 3.27962 12.658C2.03241 12.7855 0.86696 12.852 0.000488281 12.852V17C1.4561 17 6.0201 16.5231 8.767 15.7664C9.77936 15.4875 10.7204 15.1701 10.7204 14.8254V10.6742C10.7204 11.0686 9.70161 11.4116 8.68124 11.7098Z" fill="#DE3423"/>
</svg>
