<svg width="17" height="16" viewBox="0 0 17 16" fill="none" xmlns="http://www.w3.org/2000/svg">
<path d="M12.8229 14.893C10.8204 16.108 8.06705 16.2328 5.29694 14.9858C3.05403 13.9836 1.193 12.2291 0 10.2246C0.572644 10.7257 1.24071 11.1268 1.9565 11.4774C4.81723 12.8857 7.67736 12.7893 9.69016 11.481C9.68887 11.4797 9.68801 11.4788 9.68715 11.4774C6.82393 9.17184 4.39021 6.16457 2.57694 3.70891C2.19502 3.30791 1.9087 2.80668 1.62238 2.35561C3.81748 4.46066 7.30119 7.11686 8.54165 7.86902C5.91742 4.96179 3.57896 1.35334 3.67422 1.45339C7.82595 5.86402 11.6915 8.37015 11.6915 8.37015C11.8194 8.44587 11.918 8.50896 11.9974 8.56529C12.0811 8.34176 12.1545 8.10967 12.2162 7.86902C12.8843 5.31286 12.121 2.40564 10.4506 0C14.3157 2.45589 16.6066 7.06684 15.6519 10.9263C15.627 11.0304 15.5999 11.1332 15.5708 11.2341C15.5819 11.2481 15.5931 11.2625 15.6042 11.2774C17.5128 13.7835 16.988 16.4397 16.7494 15.9386C15.7141 13.8106 13.7974 14.4613 12.823 14.893L12.8229 14.893Z" fill="url(#paint0_linear)"/>
<defs>
<linearGradient id="paint0_linear" x1="8.5" y1="0" x2="8.5" y2="16" gradientUnits="userSpaceOnUse">
<stop stop-color="#F88A36"/>
<stop offset="1" stop-color="#FD2020"/>
</linearGradient>
</defs>
</svg>
