<svg width="16" height="16" viewBox="0 0 16 16" fill="none" xmlns="http://www.w3.org/2000/svg">
<path d="M7.89629 0C3.53517 0 0 3.53531 0 7.89615C0 12.2578 3.53517 15.7936 7.89629 15.7936C12.2578 15.7936 15.7931 12.2578 15.7931 7.89615C15.7931 3.53545 12.2577 0 7.89629 0ZM12.1551 4.5705C11.7894 4.58317 11.5369 4.36464 11.5255 4.03291C11.5214 3.91126 11.5528 3.80481 11.6362 3.68034C11.7177 3.52066 11.7352 3.50236 11.7331 3.43294C11.7256 3.22385 11.4099 3.21596 11.3235 3.22005C10.138 3.25919 9.82559 4.85901 9.57228 6.15975L9.44824 6.84575C10.1309 6.94558 10.6154 6.82252 10.8857 6.64764C11.2663 6.40053 10.7793 6.14666 10.8406 5.86576C10.9029 5.57936 11.1634 5.44109 11.3705 5.43532C11.6603 5.42814 11.867 5.72875 11.8603 6.03388C11.8501 6.53824 11.181 7.23113 9.84277 7.20283C9.67972 7.19903 9.52948 7.18762 9.3898 7.17073L9.13734 8.56427C8.91135 9.61973 8.61073 11.0616 7.53626 12.3198C6.61329 13.4169 5.67638 13.5876 5.25692 13.6017C4.47208 13.6281 3.95167 13.2098 3.93336 12.6512C3.9152 12.1106 4.39351 11.8154 4.70722 11.8049C5.12611 11.7909 5.41589 12.0944 5.42687 12.4441C5.43757 12.7404 5.28311 12.8327 5.18075 12.8885C5.1126 12.9434 5.00967 12.9993 5.01347 13.1211C5.016 13.1735 5.07204 13.2935 5.24636 13.2881C5.57795 13.2764 5.79831 13.1124 5.95235 13.0028C6.71692 12.3657 7.0112 11.2556 7.39644 9.23477L7.47726 8.74464C7.60877 8.0875 7.7545 7.35462 7.97669 6.62427C7.43769 6.21847 7.11483 5.71552 6.38969 5.51882C5.89307 5.38392 5.58992 5.4984 5.37717 5.76776C5.12499 6.08682 5.20862 6.50191 5.45222 6.74522L5.85477 7.19058C6.34843 7.76084 6.61821 8.20465 6.51669 8.80152C6.35547 9.75448 5.22031 10.4857 3.87774 10.0724C2.73202 9.71942 2.51814 8.90825 2.65556 8.46148C2.7768 8.06821 3.08924 7.99387 3.39507 8.08764C3.7223 8.18888 3.85043 8.58665 3.75693 8.89206C3.74652 8.92472 3.72976 8.97922 3.69526 9.05258C3.65724 9.13663 3.58684 9.21056 3.55671 9.30898C3.48307 9.54877 3.81185 9.71928 4.04094 9.78954C4.5536 9.94696 5.05346 9.67915 5.18032 9.2642C5.29832 8.88319 5.05712 8.61721 4.95729 8.51527L4.47194 7.99556C4.25003 7.74831 3.7613 7.05879 3.99968 6.28465C4.09149 5.986 4.28509 5.66933 4.56571 5.45968C5.15864 5.01797 5.80296 4.94546 6.41672 5.12189C7.211 5.35027 7.59244 5.87547 8.08708 6.28113C8.36404 5.46883 8.74759 4.67385 9.32489 4.00292C9.84629 3.39183 10.5465 2.94914 11.3487 2.92154C12.1501 2.89507 12.756 3.25849 12.776 3.83353C12.7843 4.07825 12.6439 4.55417 12.1551 4.5705Z" fill="white"/>
</svg>
